<svg id="Layer_3" enable-background="new 0 0 64 64" height="512" viewBox="0 0 64 64" width="512" xmlns="http://www.w3.org/2000/svg"><g><path d="m28 5 4-3 4 3 2.378.555 5.003-.986 2.835 4.238 1.784 1.193 5 1 1 5 1.209 1.811 4.235 2.84-.992 5.001.548 2.348 3 4-3 4-.555 2.378.986 5.003-4.238 2.835-1.193 1.784-1 5-5 1-1.811 1.209-2.84 4.235-5.001-.992-2.348.548-4 3-4-3-2.378-.555-5.003.986-2.835-4.238-1.784-1.193-5-1-1-5-1.209-1.811-4.235-2.84.992-5.001-.548-2.348-3-4 3-4 .555-2.378-.986-5.003 4.238-2.835 1.193-1.784 1-5 5-1 1.811-1.209 2.84-4.235 5.001.992z" fill="#f2c351"/><path d="m27.112 30.374c0-8.543-4.372-16.061-10.998-20.45l-.114.076-5 1-1 5-1.193 1.784-4.238 2.835.987 5.003-.556 2.378-3 4 3 4 .548 2.348-.992 5.001 4.235 2.84 1.209 1.811 1 5 .692.138c9.034-3.613 15.42-12.44 15.42-22.764z" fill="#f7d881"/><circle cx="32" cy="32" fill="#59ac98" r="24"/><path d="m8 32c0 7.419 3.367 14.049 8.655 18.452 6.321-4.434 10.456-11.771 10.456-20.078 0-7.334-3.225-13.911-8.329-18.404-6.495 4.295-10.782 11.66-10.782 20.03z" fill="#70ce90"/><g fill="#f7d881"><path d="m17 22 .021.014c.003-.005.007-.009.01-.014z"/><path d="m46.926 21.936c-2.583-3.824-6.6-6.596-11.276-7.56-.624-1.398-2.02-2.376-3.65-2.376s-3.026.978-3.649 2.376c-4.703.969-8.737 3.767-11.319 7.624h29.968z"/></g><g fill="#e7e4dd"><path d="m20.999 28.999c0-2.206-1.794-4-3.999-4h-5c-.553 0-1 .447-1 1v11.999c0 .553.447 1 1 1h5c2.205 0 3.999-1.794 3.999-4 0-1.193-.525-2.266-1.356-2.999.831-.734 1.356-1.807 1.356-3zm-3.999 7.999h-4v-4h4c1.102 0 1.999.898 1.999 2.002 0 1.102-.897 1.998-1.999 1.998zm0-5.999h-4v-4h4c1.102 0 1.999.897 1.999 2.001 0 1.102-.897 1.999-1.999 1.999z"/><path d="m30.999 26.999v-2h-8c-.553 0-1 .447-1 1v11.999c0 .553.447 1 1 1h8v-2h-7v-4h7v-1.999h-7v-4z"/><path d="m40.999 26.999v-2h-8c-.553 0-1 .447-1 1v11.999c0 .553.447 1 1 1h8v-2h-7v-4h7v-1.999h-7v-4z"/></g><g><path d="m51.999 38.998h-2v-1.921c0-.828-.521-1.58-1.297-1.872l-4.702-1.764v5.557h-2v-6.985c0-.009 0-.019 0-.027v-5.986c0-.266.105-.521.292-.708.188-.188.442-.292.708-.292h6c2.205 0 3.999 1.794 3.999 3.999s-1.794 3.999-3.999 3.999h-.487l.891.335c1.552.582 2.595 2.087 2.595 3.744zm-7.999-7.999h5c1.102 0 1.999-.897 1.999-1.999 0-1.104-.897-2-1.999-2l-5-.001z" fill="#e7e4dd"/></g><g fill="#f7d881"><path d="m17 42h.032c-.003-.005-.007-.01-.01-.014z"/><path d="m46.979 41.986c-.003.005-.007.01-.01.014h.031z"/><path d="m46.968 42h-29.936c2.582 3.857 6.616 6.655 11.319 7.624.623 1.398 2.019 2.376 3.649 2.376s3.026-.978 3.649-2.376c4.703-.969 8.737-3.767 11.319-7.624z"/></g><g fill="#f7d881"><path d="m17 42h.032c-.003-.005-.007-.01-.01-.014z"/><path d="m46.979 41.986c-.003.005-.007.01-.01.014h.031z"/><path d="m46.968 42h-29.936c2.582 3.857 6.616 6.655 11.319 7.624.623 1.398 2.019 2.376 3.649 2.376s3.026-.978 3.649-2.376c4.703-.969 8.737-3.767 11.319-7.624z"/></g><path d="m20.999 34.998c0-1.192-.525-2.266-1.356-2.999.832-.733 1.356-1.807 1.356-3.001 0-2.204-1.794-3.998-3.999-3.998h-5c-.553 0-1 .447-1 1v11.999c0 .553.447 1 1 1h5c2.205 0 3.999-1.794 3.999-4.001zm-3.999-7.998c1.102 0 1.999.896 1.999 2 0 1.103-.897 2-1.999 2v-.001h-4v-3.999zm-4 5.998h3.996c.002 0 .003.001.005.001 1.102 0 1.999.897 1.999 2 0 1.104-.897 2-1.999 2h-4v-4.001z"/><path d="m30.999 26.999v-2h-8c-.553 0-1 .447-1 1v11.999c0 .553.447 1 1 1h8v-2h-7v-4h7v-1.999h-7v-4z"/><path d="m40.999 26.999v-2h-8c-.553 0-1 .447-1 1v11.999c0 .553.447 1 1 1h8v-2h-7v-4h7v-1.999h-7v-4z"/><path d="m42.292 25.291c-.188.188-.292.442-.292.708v5.986.027 6.985h2v-5.557l4.702 1.764c.776.292 1.297 1.044 1.297 1.872v1.921h2v-1.921c0-1.657-1.042-3.162-2.595-3.744l-.891-.335h.487c2.205 0 3.999-1.794 3.999-3.999s-1.794-3.998-3.999-3.998l-6-.001c-.266 0-.52.105-.708.292zm1.708 1.708 5 .001c1.102 0 1.999.896 1.999 2 0 1.102-.897 1.999-1.999 1.999h-5z"/><path d="m32 7c-13.786 0-25 11.215-25 25 0 13.784 11.215 24.999 25 24.999s25-11.215 25-24.999c-.001-13.785-11.216-25-25-25zm0 47.999c-12.683 0-23-10.317-23-22.999 0-12.683 10.317-23 23-23 12.682 0 23 10.317 23 23-.001 12.682-10.318 22.999-23 22.999z"/><path d="m59.925 27.567-.451-1.934.95-4.789c.079-.396-.088-.801-.424-1.025l-4.07-2.729-.989-1.481-.961-4.806c-.079-.396-.389-.706-.785-.785l-4.805-.961-1.454-.972-2.725-4.073c-.225-.336-.624-.501-1.025-.425l-4.791.944-1.964-.459-3.832-2.874c-.355-.265-.844-.265-1.2 0l-3.832 2.874-1.933.452-4.79-.95c-.393-.075-.801.088-1.025.424l-2.729 4.07-1.481.988-4.806.961c-.396.079-.706.389-.785.785l-.961 4.805-.972 1.455-4.073 2.725c-.335.225-.503.629-.425 1.025l.945 4.79-.459 1.964-2.874 3.832c-.267.355-.267.845 0 1.2l2.874 3.832.452 1.934-.95 4.789c-.079.396.088.801.424 1.025l4.07 2.729.989 1.481.961 4.806c.079.396.389.706.785.785l4.806.961 1.454.972 2.725 4.073c.225.335.629.505 1.025.425l4.791-.944 1.964.459 3.832 2.874c.178.133.389.199.6.199s.422-.066.6-.199l3.832-2.874 1.934-.452 4.79.95c.396.078.8-.089 1.025-.424l2.73-4.07 1.481-.989 4.805-.961c.396-.079.706-.389.785-.785l.961-4.805.973-1.454 4.073-2.725c.335-.225.503-.629.425-1.025l-.945-4.79.458-1.964 2.874-3.832c.267-.355.267-.845 0-1.2zm-1.726 7.832c-.083.111-.142.238-.174.373l-.555 2.378c-.032.138-.035.281-.007.421l.858 4.348-3.684 2.464c-.109.073-.203.167-.275.275l-1.193 1.784c-.073.109-.124.231-.149.36l-.869 4.346-4.346.869c-.128.026-.25.077-.359.149l-1.811 1.21c-.109.072-.202.166-.275.274l-2.469 3.681-4.348-.862c-.139-.027-.283-.026-.422.007l-2.348.549c-.135.032-.261.091-.372.174l-3.401 2.551-3.4-2.551c-.111-.083-.237-.142-.372-.174l-2.378-.556c-.075-.018-.151-.025-.228-.025-.064 0-.129.006-.193.019l-4.349.857-2.464-3.685c-.073-.108-.167-.202-.276-.275l-1.785-1.192c-.109-.072-.231-.123-.359-.149l-4.346-.869-.869-4.346c-.026-.129-.076-.251-.149-.359l-1.209-1.812c-.073-.108-.166-.202-.275-.275l-3.681-2.469.862-4.347c.028-.14.025-.283-.007-.422l-.548-2.349c-.032-.135-.091-.262-.174-.373l-2.55-3.399 2.55-3.4c.083-.111.142-.237.174-.372l.556-2.378c.032-.139.035-.282.007-.422l-.858-4.348 3.684-2.464c.109-.073.203-.167.275-.276l1.193-1.785c.073-.108.124-.23.149-.359l.869-4.346 4.346-.869c.128-.026.25-.076.359-.149l1.811-1.209c.109-.072.202-.166.275-.274l2.469-3.681 4.348.862c.141.028.284.025.422-.007l2.348-.549c.135-.032.261-.091.372-.174l3.401-2.551 3.4 2.551c.111.083.237.142.373.174l2.378.556c.138.033.282.035.421.007l4.348-.857 2.464 3.685c.073.108.167.202.276.275l1.784 1.192c.109.072.231.123.359.149l4.346.869.869 4.346c.026.129.076.251.149.359l1.209 1.812c.073.109.166.202.275.275l3.681 2.469-.862 4.347c-.028.14-.025.283.007.422l.548 2.349c.032.135.091.262.174.373l2.55 3.4z"/><path d="m16.484 22.856c.164.104.349.155.532.155.02 0 .037-.012.057-.013h29.927c.417 0 .79-.258.936-.648.143-.38.041-.807-.254-1.082-2.706-3.948-6.72-6.691-11.358-7.769-.888-1.533-2.533-2.499-4.324-2.499-1.792 0-3.437.966-4.323 2.5-4.664 1.083-8.689 3.851-11.396 7.835-.101.112-.186.24-.231.392-.124.426.059.891.434 1.129zm12.068-7.502c.315-.064.581-.277.711-.572.483-1.083 1.557-1.782 2.737-1.782s2.253.699 2.736 1.783c.131.294.396.507.711.571 3.75.773 7.069 2.754 9.517 5.645h-25.929c2.448-2.892 5.765-4.871 9.517-5.645z"/><path d="m47.562 41.173-.021-.015c-.156-.106-.333-.143-.512-.15-.021-.001-.04-.008-.062-.008h-29.936c-.009 0-.017.003-.026.003-.189.003-.38.041-.548.155l-.021.015c-.363.248-.506.702-.376 1.121.04.131.114.242.2.342 2.707 3.998 6.741 6.777 11.416 7.862.887 1.535 2.532 2.501 4.324 2.501 1.791 0 3.436-.966 4.323-2.501 4.643-1.078 8.651-3.828 11.357-7.782.122-.115.224-.254.275-.422.129-.419-.03-.873-.393-1.121zm-12.115 7.471c-.315.064-.58.277-.711.571-.483 1.084-1.557 1.784-2.736 1.784s-2.253-.7-2.736-1.783c-.131-.295-.396-.508-.711-.572-3.751-.773-7.069-2.752-9.517-5.644h25.928c-2.448 2.892-5.765 4.87-9.517 5.644z"/></g></svg>