<svg id="Layer_1" enable-background="new 0 0 512 512" height="512" viewBox="0 0 512 512" width="512" xmlns="http://www.w3.org/2000/svg"><g id="XMLID_1628_"><path id="XMLID_1046_" d="m492.951 300.403c5.652 5.852 3.431 15.581-4.2 18.401-32.301 11.936-49.339 47.316-38.531 80.011 2.553 7.724-3.669 15.527-11.768 14.756-34.281-3.261-64.982 21.223-69.431 55.369-1.051 8.067-10.042 12.397-17.005 8.189-29.471-17.812-67.755-9.074-86.579 19.761-4.447 6.812-14.427 6.812-18.874 0-18.824-28.835-57.108-37.573-86.579-19.761-6.963 4.208-15.954-.122-17.005-8.189-4.449-34.147-35.15-58.63-69.431-55.369-8.099.77-14.321-7.032-11.768-14.756 10.807-32.695-6.231-68.075-38.531-80.011-7.631-2.82-9.852-12.549-4.2-18.401 23.923-24.768 23.923-64.037 0-88.806-5.652-5.852-3.431-15.581 4.2-18.401 32.301-11.936 49.339-47.316 38.531-80.011-2.553-7.724 3.669-15.527 11.768-14.756 34.281 3.261 64.982-21.223 69.431-55.369 1.051-8.067 10.042-12.397 17.005-8.189 29.471 17.812 67.755 9.074 86.579-19.761 4.447-6.812 14.427-6.812 18.874 0 18.824 28.835 57.108 37.573 86.579 19.761 6.963-4.208 15.954.122 17.005 8.189 4.449 34.147 35.15 58.631 69.431 55.369 8.099-.77 14.321 7.032 11.768 14.756-10.807 32.695 6.231 68.075 38.531 80.011 7.631 2.82 9.852 12.549 4.2 18.401-23.923 24.769-23.923 64.037 0 88.806z" fill="#c5d3de"/><circle id="XMLID_1045_" cx="256" cy="256" fill="#fff" r="178"/><g id="XMLID_1484_"><path id="XMLID_1485_" d="m256 390c58.343 0 107.968-37.291 126.365-89.333h-252.73c18.397 52.042 68.022 89.333 126.365 89.333z" fill="#ffcd69"/><path id="XMLID_1486_" d="m256 122c-58.343 0-107.968 37.29-126.364 89.333h252.729c-18.397-52.043-68.022-89.333-126.365-89.333z" fill="#8aa8bd"/><path id="XMLID_1568_" d="m382.364 211.333h-252.728c-4.939 13.972-7.636 29.004-7.636 44.667s2.697 30.695 7.635 44.667h252.729c4.939-13.972 7.636-29.004 7.636-44.667s-2.697-30.695-7.636-44.667z" fill="#ff7d97"/></g><g id="XMLID_253_"><path id="XMLID_280_" d="m500.144 293.455c-20.287-21.003-20.287-53.907 0-74.911 5.009-5.187 7.042-12.479 5.438-19.509s-6.6-12.719-13.364-15.219c-27.391-10.121-41.667-39.768-32.503-67.492 2.263-6.847.93-14.301-3.566-19.938s-11.463-8.589-18.644-7.912c-29.067 2.766-54.795-17.75-58.568-46.706-.932-7.15-5.367-13.287-11.863-16.416s-14.06-2.77-20.23.96c-24.99 15.105-57.069 7.783-73.033-16.669-3.942-6.039-10.6-9.643-17.811-9.643s-13.869 3.604-17.811 9.643c-15.962 24.451-48.042 31.774-73.033 16.669-6.17-3.729-13.733-4.09-20.23-.96-6.497 3.129-10.932 9.266-11.863 16.416-3.773 28.956-29.5 49.469-58.568 46.706-7.184-.679-14.147 2.274-18.644 7.912s-5.829 13.092-3.566 19.938c9.165 27.725-5.113 57.371-32.504 67.492-6.763 2.5-11.759 8.188-13.363 15.218s.428 14.323 5.438 19.511c20.287 21.003 20.287 53.907 0 74.911-5.009 5.187-7.042 12.479-5.438 19.509s6.6 12.719 13.364 15.219c27.391 10.121 41.667 39.768 32.503 67.492-2.263 6.847-.93 14.301 3.566 19.938s11.469 8.59 18.644 7.912c29.072-2.777 54.795 17.75 58.568 46.706.932 7.15 5.367 13.287 11.863 16.416s14.06 2.771 20.23-.96c24.989-15.104 57.07-7.783 73.033 16.669 3.941 6.038 10.6 9.643 17.811 9.643s13.869-3.604 17.811-9.643c15.963-24.452 48.042-31.772 73.033-16.669 6.17 3.729 13.733 4.09 20.23.96 6.497-3.129 10.932-9.266 11.863-16.416 3.773-28.956 29.507-49.454 58.568-46.706 7.177.681 14.147-2.275 18.644-7.912 4.496-5.638 5.829-13.092 3.566-19.938-9.165-27.725 5.113-57.371 32.504-67.492 6.763-2.5 11.759-8.188 13.363-15.218s-.429-14.323-5.438-19.511zm-14.386 13.896c.118.122.478.494.325 1.164-.153.671-.639.85-.798.909-18.066 6.676-32.618 19.909-40.975 37.262s-9.63 36.98-3.585 55.268c.053.161.216.653-.213 1.19-.428.539-.943.49-1.112.473-19.176-1.824-38.026 3.784-53.085 15.793-15.058 12.009-24.721 29.141-27.209 48.239-.022.169-.089.682-.709.98-.616.299-1.061.032-1.207-.058-16.483-9.961-35.902-13.091-54.68-8.803-18.777 4.285-34.917 15.527-45.445 31.655-.095.143-.377.577-1.065.577s-.97-.434-1.063-.576c-10.529-16.128-26.668-27.37-45.445-31.655-5.492-1.254-11.036-1.873-16.548-1.873-13.334 0-26.469 3.627-38.131 10.676-.145.09-.589.356-1.208.058-.62-.299-.687-.812-.709-.98-2.488-19.099-12.151-36.23-27.209-48.239-15.059-12.009-33.905-17.615-53.085-15.793-.168.017-.684.065-1.112-.473-.429-.537-.267-1.029-.213-1.19 6.045-18.287 4.772-37.915-3.585-55.268-8.357-17.354-22.909-30.586-40.975-37.262-.16-.059-.646-.238-.798-.909-.153-.67.207-1.043.324-1.165 13.381-13.853 20.75-32.089 20.75-51.35s-7.369-37.497-20.75-51.351c-.118-.122-.478-.494-.325-1.164.153-.671.639-.85.798-.909 18.066-6.676 32.618-19.909 40.975-37.262s9.63-36.98 3.585-55.268c-.053-.161-.216-.653.213-1.19.429-.538.944-.488 1.112-.473 19.174 1.819 38.026-3.784 53.085-15.793 15.058-12.009 24.721-29.141 27.209-48.239.022-.169.089-.682.709-.98.618-.298 1.063-.03 1.207.058 16.484 9.962 35.903 13.091 54.68 8.803 18.777-4.285 34.917-15.527 45.445-31.655.094-.144.376-.578 1.064-.578s.97.434 1.063.576c10.529 16.128 26.668 27.37 45.445 31.655 18.777 4.286 38.197 1.159 54.68-8.803.146-.088.591-.355 1.208-.058.62.299.687.812.709.98 2.488 19.099 12.151 36.23 27.209 48.239s33.905 17.614 53.085 15.793c.167-.02.684-.065 1.112.473.429.537.267 1.029.213 1.19-6.045 18.287-4.772 37.915 3.585 55.268 8.357 17.354 22.909 30.586 40.975 37.262.16.059.646.238.798.909.153.67-.207 1.043-.324 1.165-13.381 13.853-20.75 32.089-20.75 51.35s7.37 37.498 20.75 51.352l7.193-6.947z"/><path id="XMLID_763_" d="m256 68c-103.664 0-188 84.337-188 188s84.336 188 188 188 188-84.337 188-188-84.336-188-188-188zm0 356c-92.636 0-168-75.364-168-168s75.364-168 168-168 168 75.364 168 168-75.364 168-168 168z"/><path id="XMLID_786_" d="m303.657 120.076c-5.213-1.829-10.918.916-12.746 6.128-1.827 5.212.917 10.918 6.128 12.745 31.341 10.989 56.174 33.809 70.226 62.384h-222.531c14.049-28.567 38.873-51.384 70.202-62.375 5.211-1.829 7.954-7.535 6.125-12.747-1.827-5.211-7.533-7.952-12.747-6.126-57.608 20.211-96.314 74.831-96.314 135.915 0 79.402 64.598 144 144 144s144-64.598 144-144c0-61.097-38.717-115.72-96.343-135.924zm71.376 101.257c3.234 11.083 4.967 22.729 4.967 34.667 0 12.029-1.728 23.66-4.938 34.666h-238.124c-3.21-11.006-4.938-22.637-4.938-34.666 0-11.938 1.733-23.583 4.967-34.667zm-119.033 158.667c-48.765 0-91.038-28.299-111.279-69.334h222.557c-20.24 41.035-62.513 69.334-111.278 69.334z"/><path id="XMLID_788_" d="m256 132c2.63 0 5.21-1.07 7.07-2.931 1.86-1.859 2.93-4.439 2.93-7.069s-1.07-5.21-2.93-7.07-4.44-2.93-7.07-2.93-5.21 1.069-7.07 2.93c-1.86 1.86-2.93 4.44-2.93 7.07s1.07 5.21 2.93 7.069c1.86 1.861 4.44 2.931 7.07 2.931z"/></g></g></svg>